<?xml version="1.0" encoding="UTF-8" standalone="no"?>
<!-- Generator: Adobe Illustrator 24.2.0, SVG Export Plug-In . SVG Version: 6.00 Build 0)  -->

<svg
   xmlns:dc="http://purl.org/dc/elements/1.1/"
   xmlns:cc="http://creativecommons.org/ns#"
   xmlns:rdf="http://www.w3.org/1999/02/22-rdf-syntax-ns#"
   xmlns:svg="http://www.w3.org/2000/svg"
   xmlns="http://www.w3.org/2000/svg"
   xmlns:sodipodi="http://sodipodi.sourceforge.net/DTD/sodipodi-0.dtd"
   xmlns:inkscape="http://www.inkscape.org/namespaces/inkscape"
   version="1.1"
   id="Calque_1"
   x="0px"
   y="0px"
   viewBox="0 0 869.79284 688.24152"
   xml:space="preserve"
   sodipodi:docname="ISOTYPE ORTHOPUS .svg"
   width="869.79285"
   height="688.24158"
   inkscape:version="0.92.5 (2060ec1f9f, 2020-04-08)"><metadata
   id="metadata11"><rdf:RDF><cc:Work
       rdf:about=""><dc:format>image/svg+xml</dc:format><dc:type
         rdf:resource="http://purl.org/dc/dcmitype/StillImage" /><dc:title></dc:title></cc:Work></rdf:RDF></metadata><defs
   id="defs9" /><sodipodi:namedview
   pagecolor="#ffffff"
   bordercolor="#666666"
   borderopacity="1"
   objecttolerance="10"
   gridtolerance="10"
   guidetolerance="10"
   inkscape:pageopacity="0"
   inkscape:pageshadow="2"
   inkscape:window-width="3696"
   inkscape:window-height="2032"
   id="namedview7"
   showgrid="false"
   fit-margin-top="0"
   fit-margin-left="0"
   fit-margin-bottom="0"
   fit-margin-right="0"
   inkscape:zoom="0.56066789"
   inkscape:cx="-1.1964575"
   inkscape:cy="-337.54071"
   inkscape:window-x="144"
   inkscape:window-y="54"
   inkscape:window-maximized="1"
   inkscape:current-layer="Calque_1" />
<style
   type="text/css"
   id="style2">
	.st0{fill:#1E1E1C;stroke:#1E1E1C;stroke-width:2.8546;stroke-miterlimit:10;}
</style>
<path
   class="st0"
   d="m 854.40607,457.63567 c -5.91099,-2.19945 -12.78432,-0.54986 -16.99997,4.53637 -2.24527,2.74931 -3.98647,5.91101 -5.63602,9.02689 -3.02422,5.6819 -5.63611,11.54711 -8.70619,17.18319 -9.71424,17.96215 -25.01871,27.26398 -45.1803,29.09686 -24.88126,2.24527 -45.73019,-7.37732 -64.60879,-22.31523 -14.57129,-11.50128 -26.48497,-25.52276 -36.70329,-40.91889 -15.53356,-23.36913 -29.14267,-47.88381 -39.36094,-74.00224 -2.61184,-6.68999 -3.25334,-14.80045 -2.38272,-21.99448 1.6954,-13.51745 12.32607,-19.19935 24.10227,-22.91092 12.5552,-3.98649 25.33947,-7.37731 37.75721,-11.82202 25.33947,-9.11855 48.52532,-21.71955 66.07505,-42.93505 23.23164,-28.04296 26.62248,-61.17215 8.79779,-90.31482 -2.65768,-4.30725 -6.23176,-8.29376 -10.1266,-11.5471 -4.67386,-3.89486 -12.18864,-3.25335 -17.54979,0.45821 -4.67379,3.20753 -6.55252,8.15629 -4.58215,14.70881 1.37461,4.53637 3.61988,8.88943 5.72771,13.19669 7.33147,14.93791 5.59026,28.22625 -6.46087,39.49841 -5.77356,5.40697 -12.50938,10.17245 -19.5201,13.8382 -22.17779,11.59291 -46.23425,17.64141 -70.61145,22.49851 -18.0538,3.61991 -36.06177,4.39889 -53.88645,-2.01617 -11.318,-4.07814 -18.09963,-12.32606 -22.31523,-23.00255 -0.59569,-1.46631 -0.0459,-4.35307 1.05389,-5.40697 24.05645,-23.04839 13.92984,-66.57912 -22.49851,-74.41464 -2.01616,-0.4124 -4.26143,-2.33692 -5.31534,-4.1698 C 539.51844,163.5512 534.20312,152.82889 528.10881,142.5648 506.11433,105.67823 480.45412,71.724256 446.31685,45.055956 407.23085,14.492806 363.70009,-0.44510445 313.7543,9.6356856 290.15607,14.401156 266.9244,21.641016 248.2291,37.174616 c -36.97822,30.70061 -53.06168,71.161274 -46.46333,118.586874 6.23176,45.08867 30.79226,80.4173 66.67075,107.81876 16.54168,12.601 36.24507,18.87859 55.53605,25.98098 10.76813,3.9865 21.76537,8.47703 31.15884,14.93791 11.91369,8.20211 19.15353,20.29907 17.50395,35.69519 -1.00807,9.71423 -6.68999,17.54976 -12.32608,25.15619 -18.05381,24.28558 -38.07794,46.78408 -60.11824,67.54137 -30.70062,28.86774 -63.32576,55.12365 -101.6328,73.40656 -30.47152,14.52552 -62.31768,24.10228 -96.45494,22.91091 -28.042958,-0.96225 -56.819068,-19.38263 -56.498315,-55.58187 0.0458,-4.99458 -1.374654,-10.35572 -3.482457,-14.8921 -4.398897,-9.53093 -18.282909,-11.7762 -25.385288,-4.03231 -3.436643,3.80321 -6.415058,8.88943 -7.5147798,13.83819 -5.1778708,23.41495 -3.3449959,46.32586 9.0268948,67.31226 16.312574,27.63056 42.156083,41.42293 72.719237,46.96736 33.083368,6.04848 65.479388,1.42048 97.142268,-8.93524 39.45259,-12.92177 74.87286,-33.58741 108.3228,-57.59804 27.85967,-19.97832 54.71125,-41.33129 82.11271,-61.90528 10.58485,-7.97301 21.58209,-15.39614 34.59548,-18.83277 22.72763,-6.00266 42.06443,8.84361 42.01861,32.30437 0,5.49863 -0.41239,11.18053 -1.87869,16.40423 -10.67648,38.58197 -27.44726,74.55211 -48.93771,108.27696 -9.71422,15.25868 -20.84893,29.50927 -35.51191,40.46068 -18.14545,13.56326 -40.96473,11.45547 -56.04011,-5.22369 -3.20751,-3.52828 -5.59026,-7.83553 -8.15627,-11.86785 -2.84096,-4.44473 -6.68999,-6.82745 -12.09698,-6.2776 -5.68189,0.54987 -9.94332,3.52829 -11.73037,8.79779 -1.19137,3.43665 -1.55795,7.42315 -1.14555,10.99725 1.55794,13.42579 7.46896,24.78961 17.6414,33.86231 23.27748,20.7573 57.36892,24.3314 85.91592,8.9811 18.83278,-10.1266 33.1292,-25.3395 45.91349,-41.9728 36.74908,-47.83799 66.99149,-99.79994 95.49268,-152.81579 6.55252,-12.23443 12.00531,-25.11036 22.2694,-35.09951 17.229,-16.7708 41.148,-15.85435 56.45249,2.56602 4.90294,5.91101 9.256,12.23442 13.70073,18.51201 18.42037,26.07261 38.81109,50.3582 64.6088,69.60335 24.33134,18.09963 50.99969,30.05912 82.02106,30.10494 3.57409,-0.18329 7.14817,-0.27493 10.67646,-0.6415 33.08336,-3.43663 59.7517,-17.45812 76.47662,-47.15066 7.65228,-13.51744 12.05116,-28.22624 12.4177,-43.85148 0.13752,-7.01073 -3.11587,-11.73039 -8.84355,-13.88402 z M 447.27913,294.64744 c -18.55786,-0.0459 -33.7707,-15.30448 -33.7707,-33.77068 0,-18.60366 15.16703,-33.72486 33.72486,-33.72486 18.64947,0.0459 33.8165,15.16702 33.77069,33.67904 0.0459,18.55783 -15.30449,33.90814 -33.72485,33.8165 z m 94.80534,-47.70051 c -14.20477,-0.22911 -25.33947,-11.63874 -25.24782,-25.75188 0.13749,-14.06729 11.68455,-25.43111 25.70605,-25.24781 14.15893,0.18328 25.29363,11.5471 25.202,25.75186 -0.0459,13.97566 -11.73039,25.47694 -25.66023,25.24783 z"
   id="path4"
   inkscape:connector-curvature="0"
   style="fill:#1e1e1c;stroke:#1e1e1c;stroke-width:13.08029842;stroke-miterlimit:10" />
</svg>